<svg xmlns="http://www.w3.org/2000/svg" xmlns:xlink="http://www.w3.org/1999/xlink" width="78" height="78" viewBox="0 0 78 78"><defs><style>.a{fill:#ffc600;}.b{fill:none;stroke:#312f1e;stroke-linecap:round;stroke-linejoin:round;stroke-width:2px;}.c{filter:url(#a);}</style><filter id="a" x="0" y="0" width="78" height="78" filterUnits="userSpaceOnUse"><feOffset dy="3" input="SourceAlpha"/><feGaussianBlur stdDeviation="3" result="b"/><feFlood flood-opacity="0.2"/><feComposite operator="in" in2="b"/><feComposite in="SourceGraphic"/></filter></defs><g transform="translate(9 6)"><g class="c" transform="matrix(1, 0, 0, 1, -9, -6)"><circle class="a" cx="30" cy="30" r="30" transform="translate(9 6)"/></g><g transform="translate(-347 -3656)"><path class="b" d="M395,3695.958H376.293L369.655,3702v-6.042H360V3673h35Z" transform="translate(0)"/><path class="b" d="M375.13,3683.339a2.687,2.687,0,1,1,5.374,0" transform="translate(-5.775 -2.965)"/><path class="b" d="M398.157,3683.339a2.687,2.687,0,1,0-5.374,0" transform="translate(-12.512 -2.965)"/><path class="b" d="M372.609,3692c0,3.325,3.359,6.045,7.465,6.045h6.636c4.106,0,7.465-2.72,7.465-6.045" transform="translate(-5.892 -7.101)"/></g></g></svg>