<svg xmlns="http://www.w3.org/2000/svg" xmlns:xlink="http://www.w3.org/1999/xlink" width="78" height="78" viewBox="0 0 78 78">
  <defs>
    <filter id="Ellipse_7" x="0" y="0" width="78" height="78" filterUnits="userSpaceOnUse">
      <feOffset dy="3" input="SourceAlpha"/>
      <feGaussianBlur stdDeviation="3" result="blur"/>
      <feFlood flood-opacity="0.2"/>
      <feComposite operator="in" in2="blur"/>
      <feComposite in="SourceGraphic"/>
    </filter>
  </defs>
  <g id="chat-bot-icon" transform="translate(-581 -518)">
    <g transform="matrix(1, 0, 0, 1, 581, 518)" filter="url(#Ellipse_7)">
      <circle id="Ellipse_7-2" data-name="Ellipse 7" cx="30" cy="30" r="30" transform="translate(9 6)" fill="#ffc600"/>
    </g>
    <g id="chat-happy" transform="translate(243 -3132)">
      <path id="Path_8" data-name="Path 8" d="M395,3695.958H376.293L369.655,3702v-6.042H360V3673h35Z" transform="translate(0)" fill="none" stroke="#9f9d8c" stroke-linecap="round" stroke-linejoin="round" stroke-width="2"/>
      <path id="Path_9" data-name="Path 9" d="M375.13,3683.339a2.687,2.687,0,1,1,5.374,0" transform="translate(-5.775 -2.965)" fill="none" stroke="#9f9d8c" stroke-linecap="round" stroke-linejoin="round" stroke-width="2"/>
      <path id="Path_10" data-name="Path 10" d="M398.157,3683.339a2.687,2.687,0,1,0-5.374,0" transform="translate(-12.512 -2.965)" fill="none" stroke="#9f9d8c" stroke-linecap="round" stroke-linejoin="round" stroke-width="2"/>
      <path id="Path_11" data-name="Path 11" d="M372.609,3692c0,3.325,3.359,6.045,7.465,6.045h6.636c4.106,0,7.465-2.72,7.465-6.045" transform="translate(-5.892 -7.101)" fill="none" stroke="#9f9d8c" stroke-linecap="round" stroke-linejoin="round" stroke-width="2"/>
    </g>
  </g>
</svg>
