<svg xmlns="http://www.w3.org/2000/svg" width="24" height="24" viewBox="0 0 24 24">
  <g id="delete" transform="translate(-32.549 -715.548)">
    <path id="Union_7" data-name="Union 7" d="M21.161,23.47,12,14.309,2.838,23.47a1.688,1.688,0,0,1-2.381.072A1.688,1.688,0,0,1,.53,21.161L9.691,12,.53,2.838A1.685,1.685,0,0,1,.458.458,1.685,1.685,0,0,1,2.838.53L12,9.691,21.161.53A1.686,1.686,0,0,1,23.543.458a1.685,1.685,0,0,1-.073,2.38L14.308,12l9.161,9.161a1.687,1.687,0,0,1,.073,2.381A1.583,1.583,0,0,1,22.417,24,1.779,1.779,0,0,1,21.161,23.47Z" transform="translate(32.549 715.548)" fill="#ffc600"/>
  </g>
</svg>
