<svg xmlns="http://www.w3.org/2000/svg" width="136" height="68" viewBox="0 0 136 68"><defs><style>.a,.c{fill:#ffc600;}.b{fill:#312f1e;}.c{stroke:rgba(0,0,0,0);stroke-miterlimit:10;}</style></defs><g transform="translate(0 -221)"><path class="a" d="M0,0H68V68H0Z" transform="translate(0 221)"/><path class="b" d="M62.106,73.523a8.484,8.484,0,0,1-1.6-.156,12.96,12.96,0,0,1-6.441-3.708,22.3,22.3,0,0,1-2.208-2.618l1.364-1.364a25.249,25.249,0,0,0,2.2,2.629c1.539,1.539,3.126,3.108,5.019,3.572a5.543,5.543,0,0,0,6.076-2.12c1.509-2.243,1.161-4.976.9-6.507a12.24,12.24,0,0,0-3.339-6.207c-1.429-1.468-2.554-2.591-3.307-3.335-3,3.016-11.177,11.234-12.1,12.094-4.382,4.075-8.517,7.888-13.017,7.34a11.175,11.175,0,0,1-7.334-4.309A11.7,11.7,0,0,1,30.9,51.9a10.373,10.373,0,0,1,7.995-1.84c2.927.5,5.7,2.924,7.659,5.6,1.59,2.176,1.475,2,1.49,2.022L46.7,59.056c-.015-.021-.215-.247-1.8-2.418-2.98-4.079-8.622-6.928-13.637-3.063a10.015,10.015,0,0,0-2.717,13.3,8.878,8.878,0,0,0,6.9,4.47c3.87.149,7.646-4.586,11.114-7.81,1.439-1.338,9.5-9.48,13.094-13.1l1.068-1.074,1.1,1.045c.067.064,1.677,1.6,4.473,4.473a15.185,15.185,0,0,1,4.171,7.837,9.011,9.011,0,0,1-2.361,8.152A8.357,8.357,0,0,1,62.106,73.523Z" transform="translate(-13.816 193.632)"/></g><g transform="translate(-1 -221)"><path class="b" d="M0,0H68V68H0Z" transform="translate(69 221)"/><path class="c" d="M18.636,20.107a7.129,7.129,0,0,1-1.4-2.379l1.237-.587a7.513,7.513,0,0,0,1.174,2.085,5.226,5.226,0,0,0,4.073,1.858,5.054,5.054,0,0,0,5.246-5.018,3.825,3.825,0,0,0-2.118-3.422c-.619-.358-1.89-1.011-3.682-1.89-2.151-1.043-3.226-1.63-3.976-2.867a4.676,4.676,0,0,1-.684-2.477A5.28,5.28,0,0,1,24.078,0a5.829,5.829,0,0,1,5.28,3.1l-1.044.88A4.644,4.644,0,0,0,24.045,1.3,3.863,3.863,0,0,0,20,5.344c0,2.347,1.63,3.129,3.813,4.2a30.725,30.725,0,0,1,4.334,2.281,4.778,4.778,0,0,1,2.313,4.2,6.5,6.5,0,0,1-6.778,6.354A6.206,6.206,0,0,1,18.636,20.107Zm15.98,1.922V.293h4.2c3.552,0,6.355,1.956,6.355,5.671,0,3.617-2.574,5.736-6.322,5.736h-2.8v10.33ZM36.051,10.4h2.867c2.835,0,4.757-1.661,4.757-4.4,0-2.7-1.824-4.4-4.985-4.4h-2.64ZM0,22.029V.293H4.3a10.976,10.976,0,0,1,8.017,3.031,11.32,11.32,0,0,1,3.128,7.853A11.249,11.249,0,0,1,12.318,19,10.975,10.975,0,0,1,4.3,22.029Zm1.434-1.3H4.269c5.735,0,9.68-3.91,9.68-9.548A9.25,9.25,0,0,0,4.269,1.6H1.434Z" transform="translate(81 244)"/></g></svg>