<svg xmlns="http://www.w3.org/2000/svg" width="7" height="32" viewBox="0 0 7 32"><g transform="translate(1 1)"><path d="M-1560-4552a2.5,2.5,0,0,1,2.5-2.5,2.5,2.5,0,0,1,2.5,2.5,2.5,2.5,0,0,1-2.5,2.5A2.5,2.5,0,0,1-1560-4552Zm0-13a2.5,2.5,0,0,1,2.5-2.5,2.5,2.5,0,0,1,2.5,2.5,2.5,2.5,0,0,1-2.5,2.5A2.5,2.5,0,0,1-1560-4565Zm0-12a2.5,2.5,0,0,1,2.5-2.5,2.5,2.5,0,0,1,2.5,2.5,2.5,2.5,0,0,1-2.5,2.5A2.5,2.5,0,0,1-1560-4577Z" transform="translate(1560 4579.5)" fill="rgba(0,0,0,0)" stroke="#312f1e" stroke-linejoin="round" stroke-width="2"/></g></svg>